<!-- Generated by IcoMoon.io -->
<svg version="1.1" xmlns="http://www.w3.org/2000/svg" width="56" height="32" viewBox="0 0 56 32">
<title>Logo4</title>
<path fill="#afb1b8" d="M19.934 4.046l3.676 3.48-6.824-0.004v16.885h17.836v-6.456l3.672 3.476v-17.382h-18.361zM34.461 17.543l-10.424-9.868h10.424v9.868zM31.225 21.938h-11.616v-11.357h0.821v10.587h10.795v0.769zM22.353 26.655l-0.429 0.884-0.429-0.884h-0.36l0.626 1.178v0.687h0.325v-0.687l0.625-1.178h-0.358zM22.892 28.52l0.151-0.434h0.722l0.152 0.434h0.338l-0.706-1.865h-0.291l-0.704 1.865h0.337zM23.404 27.052l0.27 0.773h-0.54l0.27-0.773zM25.113 27.78c-0.044 0.066-0.070 0.147-0.070 0.234 0 0.001 0 0.002 0 0.003v-0c0 0.157 0.055 0.285 0.165 0.383s0.259 0.146 0.443 0.146c0.185 0 0.344-0.050 0.477-0.15l0.105 0.124h0.361l-0.274-0.324c0.108-0.147 0.161-0.335 0.161-0.564h-0.27c0 0.125-0.026 0.239-0.078 0.341l-0.36-0.425 0.127-0.092c0.077-0.052 0.142-0.117 0.192-0.192l0.002-0.003c0.037-0.061 0.059-0.134 0.059-0.212 0-0.001 0-0.002 0-0.003v0c0-0.002 0-0.005 0-0.007 0-0.115-0.050-0.218-0.13-0.288l-0-0c-0.083-0.075-0.193-0.121-0.315-0.121-0.006 0-0.013 0-0.019 0l0.001-0c-0.15 0-0.27 0.043-0.358 0.129-0.089 0.084-0.133 0.199-0.133 0.346 0 0.060 0.014 0.122 0.042 0.186 0.029 0.064 0.080 0.142 0.152 0.233-0.138 0.099-0.231 0.185-0.277 0.257zM25.954 28.193c-0.080 0.065-0.182 0.104-0.294 0.105h-0c-0.005 0-0.010 0-0.015 0-0.080 0-0.153-0.031-0.208-0.081l0 0c-0.052-0.051-0.084-0.121-0.084-0.199 0-0.004 0-0.007 0-0.011l-0 0.001c0-0.1 0.051-0.189 0.154-0.267l0.040-0.028 0.407 0.481zM25.62 27.366c-0.088-0.108-0.132-0.198-0.132-0.27 0-0.062 0.018-0.114 0.054-0.155 0.034-0.038 0.082-0.062 0.137-0.062 0.003 0 0.006 0 0.009 0h-0c0.002-0 0.004-0 0.007-0 0.051 0 0.098 0.020 0.133 0.053l-0-0c0.037 0.034 0.055 0.076 0.055 0.124 0 0.002 0 0.004 0 0.007 0 0.069-0.031 0.132-0.079 0.174l-0 0-0.040 0.031-0.142 0.098zM28.655 28.379c0.128-0.112 0.201-0.268 0.22-0.466h-0.323c-0.017 0.133-0.058 0.228-0.122 0.285s-0.16 0.086-0.287 0.086c-0.139 0-0.245-0.053-0.317-0.159s-0.108-0.26-0.108-0.461v-0.165c0.002-0.199 0.040-0.349 0.115-0.452 0.076-0.103 0.185-0.155 0.325-0.155 0.121 0 0.213 0.030 0.275 0.089s0.102 0.156 0.118 0.29h0.323c-0.021-0.205-0.093-0.362-0.219-0.474s-0.291-0.168-0.497-0.168c-0.153 0-0.287 0.037-0.404 0.109-0.117 0.075-0.209 0.18-0.266 0.305l-0.002 0.004c-0.059 0.13-0.094 0.283-0.094 0.443 0 0.008 0 0.015 0 0.023l-0-0.001v0.174c0.003 0.172 0.035 0.322 0.096 0.452s0.149 0.23 0.261 0.301c0.114 0.070 0.245 0.105 0.393 0.105 0.212 0 0.383-0.056 0.511-0.167zM30.559 28.118c0.063-0.138 0.095-0.299 0.095-0.482v-0.103c0-0.006 0-0.013 0-0.020 0-0.166-0.036-0.323-0.1-0.465l0.003 0.007c-0.059-0.132-0.153-0.239-0.27-0.313l-0.003-0.002c-0.117-0.073-0.252-0.11-0.404-0.11s-0.286 0.037-0.404 0.111c-0.117 0.073-0.208 0.179-0.273 0.319-0.061 0.135-0.096 0.293-0.096 0.459 0 0.008 0 0.016 0 0.024l-0-0.001v0.105c0.001 0.178 0.033 0.336 0.097 0.472 0.065 0.137 0.156 0.242 0.274 0.317 0.119 0.073 0.253 0.11 0.404 0.11 0.153 0 0.288-0.037 0.405-0.11 0.117-0.075 0.208-0.18 0.271-0.318zM30.213 27.064c0.079 0.11 0.117 0.269 0.117 0.475v0.097c0 0.21-0.039 0.37-0.116 0.479-0.077 0.11-0.187 0.164-0.331 0.164-0.004 0-0.009 0-0.013 0-0.132 0-0.248-0.066-0.318-0.167l-0.001-0.001c-0.080-0.112-0.119-0.27-0.119-0.475v-0.108c0.002-0.2 0.042-0.356 0.12-0.465 0.070-0.101 0.185-0.166 0.315-0.166 0.005 0 0.010 0 0.014 0l-0.001-0c0.144 0 0.254 0.055 0.332 0.165z"></path>
</svg>
